<?xml version="1.0" encoding="UTF-8"?>
<svg id="Calque_2" data-name="Calque 2" xmlns="http://www.w3.org/2000/svg" viewBox="0 0 1340.76 154.99">
  <defs>
    <style>
      .cls-1 {
        opacity: .11;
      }

      .cls-1, .cls-2 {
        fill: #00fa6c;
      }

      .cls-3 {
        fill: #fff;
      }

      .cls-4 {
        fill: #111410;
      }
    </style>
  </defs>
  <g id="Calque_1-2" data-name="Calque 1">
    <g>
      <polygon class="cls-2" points="26 53.67 26 153.91 2.44 129.85 .17 127.55 0 127.72 0 27.13 1.68 28.84 26 53.67"/>
      <path class="cls-3" d="M1321.52,144.8c-5.92,4.09-17.89,8.97-25.02,8.97h-135l-1.5-1.5v-22l1.5-1.5h136c4.72,0,13.71-7.78,15.69-12.31,6.71-15.4-5.97-26.56-20.66-27.72-2.73-.21-5.5-.37-8.3-.47,6.02-.38,10.78-5.47,10.78-11.69,0-5.89-4.27-10.76-9.83-11.59,5.5.11,10.92.38,16.2.91,40.72,4.07,53.92,55.6,20.14,78.9Z"/>
      <path class="cls-3" d="M1170.53,12.8c4.48-3.77,19.48-12.03,24.97-12.03h139.5v24h-135.5c-1.77,0-11.2,5.46-12.9,7.11-13.26,12.92-2.34,32.39,14.86,33.93,1.78.16,3.57.29,5.37.4-6.36.07-11.5,5.26-11.5,11.65,0,6.03,4.59,10.99,10.46,11.59-3.78-.16-7.51-.42-11.17-.8-38.23-3.99-53.97-50.71-24.09-75.85Z"/>
      <path class="cls-2" d="M1295.01,76.58c0,6.22-4.76,11.31-10.78,11.69-.76-.03-1.52-.06-2.28-.08-24.29-.67-50.55,2.2-74.74,1.31-.45,0-.9-.03-1.35-.05h-.07c-5.87-.6-10.46-5.56-10.46-11.59,0-6.39,5.14-11.58,11.5-11.65.56.03,1.12.06,1.68.09,23.63,1.21,49.42-1.55,73.65-1.35,1.01.01,2.02.02,3.02.04,5.56.83,9.83,5.7,9.83,11.59Z"/>
      <path class="cls-4" d="M1205.86,89.45c.45.02.9.04,1.35.05-.08.01-.15.01-.23.01-.38,0-.75-.02-1.12-.06Z"/>
      <path class="cls-4" d="M1208.51,66.3c-.56-.03-1.12-.06-1.68-.09.05-.01.1-.01.15-.01.52,0,1.03.03,1.53.1Z"/>
      <path class="cls-4" d="M1281.95,88.19c.76.02,1.52.05,2.28.08-.24.02-.48.03-.73.03-.53,0-1.04-.04-1.55-.11Z"/>
      <path class="cls-4" d="M1285.18,64.99c-1-.02-2.01-.03-3.02-.04.44-.05.89-.08,1.34-.08.57,0,1.13.04,1.68.12Z"/>
      <path class="cls-3" d="M1060,.77v22.5l-1.5,1.5h-132c-11.07,0-24.1,14.83-25.39,25.61s-1.5,43.04-.02,53.8c1.64,11.95,13.76,22.72,25.41,24.59,26.86-2.23,58.62,3.03,84.89-.11,9.78-1.17,22.61-12.26,22.61-22.39v-17.5h-70v-21.5l1.5-1.5h94.64c-.35,13.13.54,24.54-.1,36.54-1.55,29.29-21.22,49.5-50.5,51.5-22.81,1.56-58.24,1.56-81.03-.05-26.99-1.91-51.33-21.47-53.55-49.45-1.14-14.38-1.6-55.93,2.85-68.22,5.41-14.97,27.3-35.31,43.69-35.31h138.5Z"/>
      <path class="cls-3" d="M596.5.77c12.45,1.67,28.26,14.2,33.36,25.64,15.54,34.89-12.8,67.66-48.85,65.85l52.99,61.5c-11.72-2.58-23.99,2.43-35.72-1.27l-52.78-60.72h-76.5v61h-26v-85h142.5c.49,0,6.31-1.37,7.32-1.68,17.62-5.41,21.03-29.13,4.72-38.36-.91-.52-6.65-2.96-7.04-2.96h-147.5V.77h153.5Z"/>
      <path class="cls-3" d="M409,48.77h-24.5c-5.02-12.46-12.4-21.34-26.26-23.74-27.64,1.32-58.51-2.65-85.77-.3-10.98.95-22.85,8.74-26.67,19.33-3.07,8.5-2.74,46.73-1.83,57.24,1.19,13.75,12.46,26.25,26.5,27.5,28.12,2.52,60.25-1.75,88.78-.3,11.53-2.32,20.67-10.28,23.76-21.74h26c-2.91,27.77-26.4,45.18-53.46,47.04-23.63,1.62-59.39,1.51-83.08,0-58.3-3.71-57.44-57.51-54.51-102.59,1.78-27.28,22.94-47.02,49.51-50.49,30.23,1.87,63.17-2.36,93.07,0,24.08,1.9,48.03,23.27,48.46,48.04Z"/>
      <polygon class="cls-3" points="158 122.77 158 .77 184 .77 184 152.27 182.5 153.77 149.5 153.77 0 .77 37.5 .77 158 122.77"/>
      <path class="cls-3" d="M841,128.77v25h-143.5c-2.84,0-10.83-2.87-13.72-4.28-7.96-3.89-15.09-11.6-15.78-20.72h173Z"/>
      <polygon class="cls-2" points="841 88.77 668 88.77 668 65.77 839.5 65.77 841 67.27 841 88.77"/>
      <path class="cls-3" d="M841,.77v24h-173c.44-8.96,8.36-16.68,15.96-20.54,1.13-.57,8.08-3.46,8.54-3.46h148.5Z"/>
      <polygon class="cls-2" points="409 65.77 409 88.77 351 88.77 351 66.77 409 65.77"/>
      <rect class="cls-2" x="964" y="65.77" width="96.14" height="23"/>
      <polygon class="cls-2" points="1120 40.75 1120 41.26 1119.48 40.75 1120 40.75"/>
      <polygon class="cls-3" points="1094 42.08 1120 67.11 1120 153.77 1094 153.77 1094 42.08"/>
      <polygon class="cls-2" points="1120 .77 1120 40.68 1119.4 40.68 1094 16.23 1094 .77 1120 .77"/>
      <polygon class="cls-1" points="26 24.42 26 27.05 23.43 24.42 26 24.42"/>
    </g>
  </g>
</svg>